<svg width="53" height="53" viewBox="0 0 53 53" fill="none" xmlns="http://www.w3.org/2000/svg">
<rect x="0.706787" y="1.08594" width="51" height="51" rx="25.5" stroke="black" stroke-opacity="0.2"/>
<g opacity="0.9" clip-path="url(#clip0_1_551)">
<path d="M38.4467 34.9654C37.993 36.0135 37.456 36.9783 36.8338 37.8653C35.9857 39.0746 35.2913 39.9116 34.7561 40.3764C33.9265 41.1393 33.0377 41.53 32.0858 41.5523C31.4025 41.5523 30.5785 41.3578 29.6192 40.9634C28.6569 40.5708 27.7724 40.3764 26.9638 40.3764C26.1157 40.3764 25.206 40.5708 24.2331 40.9634C23.2587 41.3578 22.4737 41.5634 21.8736 41.5837C20.9608 41.6226 20.051 41.2208 19.1429 40.3764C18.5633 39.8708 17.8383 39.0042 16.9698 37.7764C16.038 36.4654 15.2719 34.945 14.6718 33.2118C14.029 31.3396 13.7068 29.5267 13.7068 27.7716C13.7068 25.7611 14.1412 24.027 15.0114 22.5739C15.6952 21.4068 16.605 20.486 17.7437 19.8101C18.8824 19.1342 20.1127 18.7898 21.4377 18.7678C22.1626 18.7678 23.1133 18.992 24.2948 19.4327C25.4729 19.8749 26.2294 20.0992 26.561 20.0992C26.809 20.0992 27.6493 19.837 29.0739 19.3142C30.4211 18.8294 31.5581 18.6287 32.4895 18.7078C35.0135 18.9115 36.9097 19.9064 38.1708 21.699C35.9135 23.0667 34.7969 24.9824 34.8191 27.4399C34.8394 29.3541 35.5339 30.947 36.8986 32.2118C37.5171 32.7988 38.2079 33.2525 38.9763 33.5747C38.8097 34.058 38.6338 34.521 38.4467 34.9654ZM32.658 12.1865C32.658 13.6868 32.1099 15.0877 31.0173 16.3843C29.6989 17.9257 28.1041 18.8165 26.3747 18.6759C26.3527 18.4959 26.3399 18.3065 26.3399 18.1074C26.3399 16.6671 26.9669 15.1256 28.0804 13.8653C28.6363 13.2272 29.3433 12.6966 30.2007 12.2733C31.0562 11.8564 31.8655 11.6258 32.6266 11.5863C32.6488 11.7869 32.658 11.9875 32.658 12.1865V12.1865Z" fill="black"/>
</g>
<defs>
<clipPath id="clip0_1_551">
<rect width="30" height="30" fill="white" transform="translate(11.2068 11.5859)"/>
</clipPath>
</defs>
</svg>
