<?xml version="1.0" encoding="UTF-8" standalone="no"?>
<!-- Uploaded to: SVG Repo, www.svgrepo.com, Generator: SVG Repo Mixer Tools -->

<svg
   width="800px"
   height="800px"
   viewBox="0 0 60 60"
   version="1.1"
   id="svg10"
   sodipodi:docname="casino-gambling-game-svgrepo-com-white.svg"
   inkscape:version="1.3.2 (091e20e, 2023-11-25, custom)"
   xmlns:inkscape="http://www.inkscape.org/namespaces/inkscape"
   xmlns:sodipodi="http://sodipodi.sourceforge.net/DTD/sodipodi-0.dtd"
   xmlns="http://www.w3.org/2000/svg"
   xmlns:svg="http://www.w3.org/2000/svg">
  <sodipodi:namedview
     id="namedview10"
     pagecolor="#ffffff"
     bordercolor="#000000"
     borderopacity="0.25"
     inkscape:showpageshadow="2"
     inkscape:pageopacity="0.0"
     inkscape:pagecheckerboard="0"
     inkscape:deskcolor="#d1d1d1"
     inkscape:zoom="1.13625"
     inkscape:cx="400"
     inkscape:cy="400"
     inkscape:window-width="1920"
     inkscape:window-height="1147"
     inkscape:window-x="-8"
     inkscape:window-y="-8"
     inkscape:window-maximized="1"
     inkscape:current-layer="svg10" />
  <defs
     id="defs1">
    <style
       id="style1">.cls-1{fill:none;}.cls-2{fill:#3d3d63;}</style>
  </defs>
  <title
     id="title1" />
  <g
     id="g10"
     style="stroke:#000000;fill:#ffffff;stroke-width:0.56497511;stroke-dasharray:none">
    <path
       class="cls-2"
       d="m 12.63,14.77 a 1,1 0 0 0 -0.91,1.08 l 0.09,1.08 a 1,1 0 0 0 1,0.91 h 0.09 a 1,1 0 0 0 0.91,-1.09 l -0.1,-1.07 a 1,1 0 0 0 -1.08,-0.91 z"
       id="path1"
       style="stroke:#000000;fill:#ffffff;stroke-width:0.56497511;stroke-dasharray:none" />
    <path
       class="cls-2"
       d="M 51.23,34.21 48.82,31.8 A 12.45,12.45 0 0 0 40.24,11.16 L 40.32,9.24 A 2.41,2.41 0 0 0 38,6.72 L 17.53,5.78 A 2.41,2.41 0 0 0 15,8.08 L 14.87,11 10.2,11.41 A 2.41,2.41 0 0 0 8,14 l 3,33.85 a 2.43,2.43 0 0 0 2.62,2.2 L 27.44,48.84 32,53.45 a 2.65,2.65 0 0 0 1.18,0.68 2.61,2.61 0 0 0 1.36,0 L 46.78,50.85 A 2.61,2.61 0 0 0 48.63,49 L 51.91,36.77 A 2.66,2.66 0 0 0 51.23,34.21 Z M 47.42,30.4 46.13,29.11 a 9,9 0 0 0 1.08,-1.67 l 1.72,0.61 A 10.81,10.81 0 0 1 47.42,30.4 Z M 40,17 a 6.65,6.65 0 0 1 4.74,10.71 L 42.3,25.27 a 2.65,2.65 0 0 0 -2.54,-0.68 h -0.11 z m 9.61,9.18 -1.7,-0.61 A 9.14,9.14 0 0 0 48.09,23 l 1.78,-0.32 a 10.21,10.21 0 0 1 -0.29,3.48 z m -0.06,-5.41 -1.8,0.33 A 8.84,8.84 0 0 0 46.67,18.82 L 48,17.61 a 10.42,10.42 0 0 1 1.52,3.14 z m -5.63,-6.63 a 10.65,10.65 0 0 1 2.86,2 l -1.4,1.19 A 8.75,8.75 0 0 0 43.3,15.9 Z M 42,13.45 41.39,15.17 A 8.36,8.36 0 0 0 40.06,15 l 0.08,-1.8 A 10.29,10.29 0 0 1 42,13.45 Z M 17,8.17 a 0.42,0.42 0 0 1 0.44,-0.4 l 20.49,1 a 0.41,0.41 0 0 1 0.4,0.43 l -0.74,16 -1,0.27 -1.2,-13.76 A 2.43,2.43 0 0 0 32.77,9.51 L 16.88,10.84 Z M 13.41,48.09 A 0.42,0.42 0 0 1 12.96,47.72 L 10,13.87 a 0.42,0.42 0 0 1 0.38,-0.45 l 22.57,-2 a 0.41,0.41 0 0 1 0.44,0.38 l 1.24,14.12 -3.34,0.89 A 5.77,5.77 0 0 0 30.46,25.93 L 23,19.7 a 1,1 0 0 0 -1.41,0.12 l -6.26,7.45 a 5.39,5.39 0 0 0 0.41,7.43 5.28,5.28 0 0 0 4.59,1.22 5.75,5.75 0 0 1 -1,1.35 1,1 0 0 0 -0.22,1.14 A 1,1 0 0 0 20,39 h 0.09 L 23.18,38.73 22.35,42 A 2.64,2.64 0 0 0 23,44.49 L 25.57,47 Z m 10.35,-11.42 -1.63,0.14 a 6.49,6.49 0 0 0 0.31,-0.59 1.72,1.72 0 0 0 -0.25,-1.92 1.69,1.69 0 0 0 -1.83,-0.47 3.25,3.25 0 0 1 -3.28,-0.62 3.38,3.38 0 0 1 -0.2,-4.65 l 5.61,-6.69 6.61,5.55 -1.61,0.43 a 2.63,2.63 0 0 0 -1.86,1.86 z m 22.94,11.8 a 0.64,0.64 0 0 1 -0.45,0.45 L 34,52.2 A 0.64,0.64 0 0 1 33.4,52 l -8.95,-9 a 0.61,0.61 0 0 1 -0.17,-0.61 l 3.28,-12.24 a 0.64,0.64 0 0 1 0.45,-0.45 l 12.23,-3.2 v 0 a 0.69,0.69 0 0 1 0.32,0 0.66,0.66 0 0 1 0.29,0.17 l 9,9 a 0.62,0.62 0 0 1 0.17,0.61 z"
       id="path2"
       style="stroke:#000000;fill:#ffffff;stroke-width:0.56497511;stroke-dasharray:none" />
    <path
       class="cls-2"
       d="m 37,37.78 -5.21,-5.2 A 1.0111874,1.0111874 0 1 0 30.35,34 l 5.21,5.2 a 1.15,1.15 0 0 1 0.29,1.09 l -1.91,7.11 a 1,1 0 0 0 0.71,1.23 1.09,1.09 0 0 0 0.26,0 1,1 0 0 0 1,-0.74 l 1.91,-7.11 a 3.12,3.12 0 0 0 -0.82,-3 z"
       id="path3"
       style="stroke:#000000;fill:#ffffff;stroke-width:0.56497511;stroke-dasharray:none" />
    <path
       class="cls-2"
       d="m 46.39,36.87 a 1,1 0 0 0 -1.22,-0.7 l -4.63,1.23 a 1,1 0 0 0 -0.7,1.23 1,1 0 0 0 1,0.74 1.15,1.15 0 0 0 0.26,0 l 4.62,-1.24 a 1,1 0 0 0 0.67,-1.26 z"
       id="path4"
       style="stroke:#000000;fill:#ffffff;stroke-width:0.56497511;stroke-dasharray:none" />
    <path
       class="cls-2"
       d="m 30.46,44.89 a 2.53,2.53 0 0 0 0.6,2.23 c 0.52,0.53 1.1,0.38 1.29,-0.34 a 2.53,2.53 0 0 0 -0.6,-2.23 C 31.23,44 30.65,44.18 30.46,44.89 Z"
       id="path5"
       style="stroke:#000000;fill:#ffffff;stroke-width:0.56497511;stroke-dasharray:none" />
    <path
       class="cls-2"
       d="m 29.73,37.62 a 2.53,2.53 0 0 0 -0.6,-2.23 c -0.52,-0.52 -1.1,-0.37 -1.29,0.34 a 2.53,2.53 0 0 0 0.6,2.23 c 0.56,0.53 1.1,0.38 1.29,-0.34 z"
       id="path6"
       style="stroke:#000000;fill:#ffffff;stroke-width:0.56497511;stroke-dasharray:none" />
    <path
       class="cls-2"
       d="m 31,42.2 a 2.53,2.53 0 0 0 -0.6,-2.23 c -0.52,-0.52 -1.1,-0.37 -1.29,0.34 a 2.53,2.53 0 0 0 0.6,2.23 c 0.56,0.53 1.14,0.38 1.29,-0.34 z"
       id="path7"
       style="stroke:#000000;fill:#ffffff;stroke-width:0.56497511;stroke-dasharray:none" />
    <path
       class="cls-2"
       d="M 40,33.27 A 0.71,0.71 0 0 0 40.3,32 2.54,2.54 0 0 0 38.07,31.4 0.7,0.7 0 0 0 37.73,32.69 2.53,2.53 0 0 0 40,33.27 Z"
       id="path8"
       style="stroke:#000000;fill:#ffffff;stroke-width:0.56497511;stroke-dasharray:none" />
    <path
       class="cls-2"
       d="m 46,39.92 a 2.54,2.54 0 0 0 -1.63,1.64 c -0.19,0.71 0.24,1.13 1,0.94 A 2.55,2.55 0 0 0 47,40.86 c 0.18,-0.71 -0.25,-1.13 -1,-0.94 z"
       id="path9"
       style="stroke:#000000;fill:#ffffff;stroke-width:0.56497511;stroke-dasharray:none" />
    <path
       class="cls-2"
       d="m 39.18,46.55 a 2.55,2.55 0 0 0 -1.63,1.63 c -0.19,0.71 0.24,1.13 1,0.94 a 2.54,2.54 0 0 0 1.64,-1.63 c 0.14,-0.72 -0.29,-1.13 -1.01,-0.94 z"
       id="path10"
       style="stroke:#000000;fill:#ffffff;stroke-width:0.56497511;stroke-dasharray:none" />
  </g>
</svg>
