<svg width="53" height="53" viewBox="0 0 53 53" fill="none" xmlns="http://www.w3.org/2000/svg">
<rect x="0.706787" y="1.08594" width="51" height="51" rx="25.5" stroke="black" stroke-opacity="0.2"/>
<g opacity="0.9" clip-path="url(#clip0_1_549)">
<path d="M41.2068 26.5859C41.2068 18.3017 34.491 11.5859 26.2068 11.5859C17.9226 11.5859 11.2068 18.3017 11.2068 26.5859C11.2068 33.6203 16.05 39.5231 22.5834 41.1443V31.1699H19.4904V26.5859H22.5834V24.6107C22.5834 19.5053 24.894 17.1389 29.9064 17.1389C30.8568 17.1389 32.4966 17.3255 33.1674 17.5115V21.6665C32.8134 21.6293 32.1984 21.6107 31.4346 21.6107C28.9752 21.6107 28.0248 22.5425 28.0248 24.9647V26.5859H32.9244L32.0826 31.1699H28.0248V41.4761C35.4522 40.5791 41.2074 34.2551 41.2074 26.5859H41.2068Z" fill="#0866FF"/>
<path d="M32.0819 31.1699L32.9237 26.5859H28.0241V24.9647C28.0241 22.5425 28.9745 21.6107 31.4339 21.6107C32.1977 21.6107 32.8127 21.6293 33.1667 21.6665V17.5115C32.4959 17.3249 30.8561 17.1389 29.9057 17.1389C24.8933 17.1389 22.5827 19.5053 22.5827 24.6107V26.5859H19.4897V31.1699H22.5827V41.1443C23.7431 41.4323 24.9569 41.5859 26.2061 41.5859C26.8211 41.5859 27.4277 41.5481 28.0235 41.4761V31.1699H32.0813H32.0819Z" fill="white"/>
</g>
<defs>
<clipPath id="clip0_1_549">
<rect width="30" height="30" fill="white" transform="translate(11.2068 11.5859)"/>
</clipPath>
</defs>
</svg>
